<?xml version="1.0" encoding="UTF-8" standalone="no"?><!DOCTYPE svg PUBLIC "-//W3C//DTD SVG 1.1//EN" "http://www.w3.org/Graphics/SVG/1.1/DTD/svg11.dtd"><svg width="100%" height="100%" viewBox="0 0 480 480" version="1.1" xmlns="http://www.w3.org/2000/svg" xmlns:xlink="http://www.w3.org/1999/xlink" xml:space="preserve" xmlns:serif="http://www.serif.com/" style="fill-rule:evenodd;clip-rule:evenodd;stroke-linejoin:round;stroke-miterlimit:2;"><circle cx="240" cy="240" r="211.549" style="fill:none;"/><g id="busoglogo.png"><path d="M127.674,300.16c-1.008,14.709 -13.004,12.739 -19.107,12.725c-14.316,-0.034 -11.844,-14.151 -12.537,-14.861c-1.44,-1.476 -8.753,-0.725 -8.642,-14.208c0.052,-6.339 0.187,-22.815 0.063,-79.241c-0.004,-1.89 0.461,-4.231 -1.102,-4.249c-1.027,-0.012 -4.457,-0.592 -4.473,1.318c-0.129,15.902 0.916,19.889 -3.044,21.052c-5.904,1.734 -5.905,-4.895 -5.905,-5.543c-0.003,-18.886 -0.506,-20.454 3.903,-23.721c4.217,-3.126 10.379,-0.51 10.489,-2.248c0.095,-1.497 -1.514,-14.262 11.324,-23.738c9.306,-6.869 19.636,-5.15 42.205,-5.427c3.455,-0.042 30.443,-0.374 43.184,0.148c17.221,0.705 26.928,13.56 27.674,24.8c0.093,1.406 -0.055,4.804 0.85,4.88c1.647,0.14 10.668,-1.778 13.136,5.973c0.469,1.474 0.666,2.092 0.396,19.332c-0.137,8.751 -8.32,6.043 -8.411,1.669c-0.351,-16.792 1.013,-18.434 -1.783,-18.487c-1.193,-0.023 -3.887,-0.364 -3.935,0.873c-0.198,5.062 0.153,5.061 -0.013,63.319c-0.059,20.76 1.693,27.214 -4.9,31.801c-1.799,1.251 -3.765,1.117 -3.801,2.154c-0.063,1.823 1.035,6.814 -4.245,11.599c-3.549,3.216 -7.56,2.695 -14.552,2.697c-10.618,0.004 -12.14,-9.355 -11.967,-12.186c0.081,-1.321 0.709,-1.965 -0.62,-2.003c-1.929,-0.056 -43.394,-0.038 -43.578,0.021c-0.899,0.288 -0.508,0.595 -0.612,1.552Zm-8.933,1.677c-0.059,-2.871 0.094,-2.945 -0.235,-3.178c-0.18,-0.127 -1.428,-0.129 -1.553,-0.129c-10.952,-0.015 -11.497,-0.178 -11.53,0.8c-0.139,4.092 0.753,4.69 4.831,4.825c7.995,0.265 8.403,-0.534 8.488,-2.318Zm25.045,-48.805c-40.43,0.034 -41.048,0.487 -46.682,-3.809c-1.454,-1.109 -0.807,0.87 -0.666,22.85c0.048,7.448 -0.013,8.203 -0.001,10.9c0.029,6.816 1.731,6.991 7.1,6.989c77.53,-0.03 77.524,0.033 84.266,-0.006c11.275,-0.066 13.095,0.724 14.566,-2.428c0.873,-1.87 0.504,-22.227 0.843,-37.678c0.054,-2.462 -1.23,-0.583 -3.365,0.632c-5.074,2.887 -5.402,2.56 -56.061,2.549Zm1.256,-82.281c-34.205,0.041 -36.439,-0.805 -42.221,4.204c-4.21,3.647 -6.568,8.771 -5.572,9.072c0.436,0.132 91.797,0.039 99.779,0.031c1.537,-0.002 5.643,0.367 5.247,-0.8c-3.907,-11.512 -15.312,-12.346 -16.993,-12.469c-0.595,-0.044 -14.415,-0.039 -40.24,-0.039Zm44.025,73.397c12.89,-0.938 14.151,-7.57 14.139,-13.58c-0.073,-36.987 0.318,-37.209 -0.322,-37.709c-0.271,-0.211 -0.329,-0.112 -90.543,-0.1c-15.135,0.002 -16.106,-0.437 -16.161,0.918c-0.083,2.048 0.069,35.867 0.083,38.986c0.061,13.594 18.074,11.506 18.595,11.513c5.936,0.084 39.635,0.558 74.21,-0.028Zm1.673,54.354c-9.076,0.032 -9.606,-0.158 -9.648,0.821c-0.044,1.011 -0.743,4.462 1.677,4.669c10.292,0.876 10.909,-0.911 11.205,-1.769c0.146,-0.424 0.309,-2.803 0.116,-3.316c-0.311,-0.826 -0.609,-0.37 -3.349,-0.404Z" style="fill:#555b5e;"/><path d="M275.407,238.701c2.946,0.59 29.278,4.405 27.232,36.723c-1.662,26.249 -34.807,38.84 -54.337,20.827c-20.383,-18.799 -10.196,-61.307 27.105,-57.55Zm-24.457,32.951c1.183,31.191 42.177,25.702 39.108,-2.929c-2.577,-24.033 -37.901,-26.105 -39.108,2.929Z" style="fill:#555b5e;"/><path d="M240.748,166.84c0.017,-0.228 -0.175,-1.066 0.726,-1.15c0.952,-0.089 23.522,-0.03 25.567,-0.024c22.496,0.059 23.636,21.686 13.313,29.568c-0.99,0.756 -0.251,0.963 0.854,1.539c12.112,6.317 12.041,29.108 -7.867,31.789c-4.581,0.617 -32.19,0.285 -32.251,0.252c-0.391,-0.206 -0.342,-0.372 -0.342,-61.974Zm12.938,20.125c-0.002,1.246 -0.393,4.556 0.78,4.588c14.757,0.4 16.01,-0.519 17.118,-1.331c4.152,-3.043 4.746,-13.184 -5.376,-13.437c-0.974,-0.024 -11.219,-0.281 -12.177,0.096c-0.46,0.181 -0.348,0.776 -0.346,10.085Zm17.162,30.766c0.394,-0.109 0.801,-0.167 1.195,-0.276c6.464,-1.781 8.004,-12.66 -0.449,-15.194c-2.529,-0.758 -17.432,-0.328 -17.583,-0.261c-0.326,0.145 -0.324,2.365 -0.324,2.573c0.014,12.586 -0.053,12.892 0.156,13.142c0.417,0.497 13.178,0.518 17.005,0.016Z" style="fill:#555b5e;"/><path d="M335.815,238.703c3.861,-0.29 3.836,-0.305 4.17,-0.313c23.438,-0.543 31.039,21.375 28.916,21.889c-0.223,0.054 -10.846,0.029 -11.301,0.005c-1.156,-0.06 -2.656,-4.145 -5.998,-6.482c-14.643,-10.24 -33.052,2.92 -30.517,20.79c3.655,25.755 34.001,20.996 36.659,5.463c0.223,-1.302 -0.805,-0.504 -16.497,-0.812c-1.242,-0.024 -0.896,-2.098 -0.908,-6.753c-0.006,-2.449 -0.705,-3.529 1.747,-3.549c3.626,-0.03 27.124,-0.008 27.268,0.013c1.037,0.147 0.843,1.521 0.774,6.471c-0.274,19.676 -15.717,27.887 -25.111,28.903c-44.413,4.804 -50.751,-58.602 -9.203,-65.626Z" style="fill:#555b5e;"/><path d="M316.086,230.439c-1.058,-0.013 -6.759,0.7 -12.126,-3.26c-8.585,-6.334 -7.168,-15.939 -7.198,-33.086c-0.02,-11.443 -0.238,-12.053 0.887,-12.076c10.864,-0.22 11.282,-0.162 11.419,0.743c0.631,4.19 -1.552,26.366 1.651,32.254c3.806,6.998 17.186,6.34 17.456,-7.087c0.173,-8.597 -0.397,-25.198 0.362,-25.779c0.211,-0.162 11.654,-0.424 11.929,0.168c0.108,0.234 0.114,0.231 0.109,41.124c-0,2.284 0.256,5.411 -0.585,5.447c-0.866,0.037 -10.046,0.428 -10.829,-0.095c-0.858,-0.573 0.748,-7.583 -1.386,-4.559c-3.718,5.268 -10.637,6.082 -11.688,6.205Z" style="fill:#555b5e;"/><path d="M347.264,217.133c-0.148,-2.051 -0.293,-2.091 -0.042,-2.431c0.596,-0.805 9.159,-0.862 9.959,-0.867c1.865,-0.012 0.755,5.198 6.276,6.707c9.564,2.614 15.964,-6.345 7.936,-8.714c-4.418,-1.304 -26.738,-1.437 -23.157,-19.864c3.042,-15.656 36.794,-15.084 36.661,3.809c-0.008,1.071 -1.956,0.634 -2.157,0.617c-6.972,-0.573 -8.125,0.015 -8.887,-1.84c-2.748,-6.693 -13.358,-5.035 -14.645,-0.902c-1.754,5.636 8.391,5.801 14.278,7.308c11.467,2.934 14.573,11.701 11.655,19.497c-4.828,12.899 -35.085,14.05 -37.878,-3.32Z" style="fill:#555b5e;"/><path d="M187.783,260.858c17.608,5.103 6.685,29.246 -8.295,21.566c-9.377,-4.808 -8.45,-23.481 8.295,-21.566Zm-4.197,8.662c-4.629,4.347 4.277,7.938 4.553,2.548c0.066,-1.29 -0.739,-2.273 -1.161,-2.531c-1.817,-1.109 -3.292,-0.062 -3.392,-0.017Z" style="fill:#555b5e;"/><path d="M125.569,272.49c-1.754,18.114 -26.82,12.522 -22.858,-3.349c2.772,-11.102 21.776,-12.752 22.858,3.349Zm-8.749,-0.808c-1.464,-3.669 -4.86,-2.024 -5.561,-0.376c-1.878,4.415 6.06,7.33 5.561,0.376Z" style="fill:#555b5e;"/></g></svg>