<svg xmlns="http://www.w3.org/2000/svg" xmlns:xlink="http://www.w3.org/1999/xlink" version="1.1" id="Layer_1" x="0px" y="0px" width="100%" viewBox="0 0 1024 1024" enable-background="new 0 0 1024 1024" xml:space="preserve">
<path fill="none" opacity="1.000000" stroke="#000000" stroke-linecap="round" stroke-linejoin="round" stroke-width="22.000000" d=" M162.500000,521.000000   C158.245667,527.263367 158.208755,534.145935 158.327423,541.502808   C158.762802,568.495789 158.448135,595.500183 158.532822,622.499878   C158.557037,630.219910 161.706375,636.525269 168.537354,640.434753   C171.820480,642.313721 175.598923,643.312988 178.953751,645.087463   C180.396622,645.850647 181.244308,645.653931 182.516602,645.034058   C186.452606,643.116272 190.679413,642.894775 195.000580,642.962830   C203.165222,643.091614 211.335388,643.108826 219.499146,642.954773   C223.671265,642.875977 227.715179,643.264465 231.471985,645.058655   C232.975555,645.776733 234.024475,645.776794 235.528046,645.058716   C239.284821,643.264465 243.332092,642.945740 247.500107,642.955383   C281.666565,643.034485 315.834595,643.142761 349.998596,642.841064   C354.940552,642.797424 359.248505,646.660522 363.948151,644.864319   C368.439819,643.147461 372.891846,642.975830 377.500031,642.991699   C385.999939,643.020874 394.500183,642.971313 402.999878,643.022705   C404.834137,643.033813 407.004120,642.755493 408.443787,643.596252   C416.252228,648.155945 421.284546,641.583435 426.896149,638.791260   C432.445435,636.030090 434.903046,630.237244 434.956940,623.999634   C435.218933,593.667114 435.331940,563.333313 435.502716,533.000000   C435.516479,530.552124 435.195831,528.186279 434.001312,525.999268   C431.771820,521.917419 431.683136,518.010132 433.318237,513.435059   C435.049622,508.590607 435.556396,503.290405 435.538940,497.999878   C435.453156,472.000153 435.500000,446.000000 435.500000,420.000000   C435.500000,418.666656 435.079803,417.151245 435.566315,416.028748   C439.531525,406.879639 435.474152,398.773926 432.543701,390.484558   C432.274200,389.722168 431.274261,389.420105 431.895081,387.955536   C436.328156,377.497345 431.143188,369.000519 425.429352,361.050781   C413.475098,344.418640 397.028137,336.856964 376.499756,336.913177   C333.167206,337.031830 289.833405,336.577026 246.499969,336.553070   C233.000153,336.545624 219.450684,336.555176 206.011230,337.639221   C184.303223,339.390198 165.901855,356.549927 160.465683,374.989868   C159.315125,378.892700 158.848526,382.732788 160.565369,386.469971   C161.335938,388.147369 161.074646,389.635651 160.439148,390.971039   C159.212448,393.548859 158.965225,396.457794 157.880371,398.947876   C153.685638,408.576141 159.593002,417.976471 158.175491,427.526062   C157.969223,428.915741 158.460938,430.843109 158.465012,432.500092   C158.517807,453.999969 158.583755,475.500488 158.457016,496.999756   C158.409195,505.114807 159.820206,512.895874 162.596146,520.772888   C168.909103,520.999939 173.760986,525.091553 178.916855,528.140564   C185.244980,531.882812 191.969086,533.369568 199.000610,533.433716   C233.332596,533.746887 267.666626,533.954285 302.000000,533.963562   C331.999969,533.971680 362.000153,533.688843 391.999908,533.486938   C401.442383,533.423401 410.256866,530.985596 417.959534,525.443726   C421.948914,522.573486 426.233368,520.809143 431.000000,520.000000  "/>
<path fill="none" opacity="1.000000" stroke="#000000" stroke-linecap="round" stroke-linejoin="round" stroke-width="22.000000" d=" M162.000000,388.500000   C174.473572,389.824219 186.991898,389.494629 199.500000,389.496002   C273.500000,389.504089 347.500000,389.506195 421.500000,389.478851   C424.666718,389.477692 427.833344,389.166626 431.000000,388.999969  "/>





<path fill="none" opacity="1.000000" stroke="#000000" stroke-linecap="round" stroke-linejoin="round" stroke-width="21.000000" d=" M180.500015,646.500000   C180.333344,650.666687 180.111801,654.831970 180.010498,659.000244   C179.724472,670.768433 189.200684,677.439941 198.001785,677.039246   C202.825119,676.819702 207.666672,677.000000 212.500000,677.000000   C227.197510,677.000000 233.151093,671.202942 233.488739,656.499756   C233.565231,653.168213 233.500000,649.833313 233.500000,646.500000  "/>

<path fill="none" opacity="1.000000" stroke="#000000" stroke-linecap="round" stroke-linejoin="round" stroke-width="1.000000" d=" M831.000000,433.000000   C831.500000,433.166656 832.000000,433.333313 832.500000,433.500000  "/>

<path fill="none" opacity="1.000000" stroke="#000000" stroke-linecap="round" stroke-linejoin="round" stroke-width="21.000000" d=" M469.500000,468.000000   C469.666656,453.166656 469.868011,438.333618 469.979675,423.499847   C470.014832,418.828430 469.339355,414.393799 465.534058,410.962219   C463.180847,408.840149 460.616699,407.930237 457.499634,407.973663   C451.167511,408.061920 444.833344,408.000000 438.500000,408.000000  "/>
<path fill="none" opacity="1.000000" stroke="#000000" stroke-linecap="round" stroke-linejoin="round" stroke-width="22.000000" d=" M155.250000,408.000000   C149.000000,408.000000 142.749954,407.983978 136.500015,408.004059   C128.474625,408.029846 123.540504,412.913208 123.513748,421.000031   C123.465225,435.666534 123.500000,450.333344 123.500000,465.000000  "/>
<path fill="none" opacity="1.000000" stroke="#000000" stroke-linecap="round" stroke-linejoin="round" stroke-width="21.000000" d=" M414.000000,646.000000   C414.334747,651.681396 414.941284,657.306885 413.570160,663.016846   C411.439789,671.888306 405.718536,676.423340 397.494995,676.916443   C390.686127,677.324768 383.801666,677.414001 377.008087,676.894165   C368.685059,676.257385 362.233551,671.544678 362.019348,661.499573   C361.909241,656.335266 362.000000,651.166687 362.000000,646.000000  "/>
<path fill="none" opacity="1.000000" stroke="#000000" stroke-linecap="round" stroke-linejoin="round" stroke-width="21.000000" d=" M211.500000,573.000000   C201.368637,573.105042 194.607681,580.257019 193.836487,589.987061   C193.129791,598.903259 200.734650,608.129395 211.001740,608.442749   C220.356064,608.728271 228.856659,600.562927 228.913849,590.999512   C228.973328,581.056702 220.185028,572.627136 212.000000,573.000000  "/>
<path fill="none" opacity="1.000000" stroke="#000000" stroke-linecap="round" stroke-linejoin="round" stroke-width="21.000000" d=" M382.500000,607.500000   C389.249786,606.499695 394.595612,603.425354 397.483887,596.992798   C401.958801,587.026550 396.797546,577.211975 389.009979,573.976013   C378.420685,569.575867 370.111176,574.632874 365.592529,582.552795   C361.273438,590.122803 365.921570,600.937805 374.437714,605.613403   C376.622742,606.813049 378.855408,606.836609 381.031952,607.369446   C382.458862,607.718811 381.827087,608.393066 382.000000,609.000000  "/>
</svg>