<?xml version="1.0" encoding="UTF-8" standalone="no"?><!DOCTYPE svg PUBLIC "-//W3C//DTD SVG 1.1//EN" "http://www.w3.org/Graphics/SVG/1.1/DTD/svg11.dtd"><svg width="100%" height="100%" viewBox="0 0 2000 2000" version="1.1" xmlns="http://www.w3.org/2000/svg" xmlns:xlink="http://www.w3.org/1999/xlink" xml:space="preserve" xmlns:serif="http://www.serif.com/" style="fill-rule:evenodd;clip-rule:evenodd;stroke-linejoin:round;stroke-miterlimit:2;"><circle cx="1000" cy="1000" r="881.455" style="fill:#fff;"/><g id="busoglogo.png"><path d="M531.973,1250.665c-4.202,61.289 -54.185,53.079 -79.613,53.02c-59.649,-0.14 -49.352,-58.963 -52.238,-61.921c-6,-6.148 -36.47,-3.02 -36.008,-59.2c0.217,-26.413 0.78,-95.062 0.262,-330.172c-0.017,-7.874 1.922,-17.63 -4.59,-17.704c-4.28,-0.049 -18.571,-2.465 -18.635,5.49c-0.538,66.259 3.815,82.87 -12.684,87.717c-24.599,7.227 -24.604,-20.398 -24.604,-23.098c-0.013,-78.692 -2.107,-85.224 16.261,-98.839c17.572,-13.024 43.246,-2.127 43.704,-9.367c0.394,-6.239 -6.309,-59.424 47.185,-98.909c38.775,-28.622 81.815,-21.457 175.854,-22.612c14.394,-0.177 126.846,-1.557 179.935,0.616c71.756,2.937 112.201,56.498 115.31,103.335c0.389,5.859 -0.228,20.016 3.544,20.335c6.864,0.581 44.45,-7.41 54.732,24.889c1.955,6.142 2.774,8.715 1.652,80.552c-0.57,36.461 -34.667,25.179 -35.048,6.953c-1.461,-69.965 4.221,-76.808 -7.427,-77.031c-4.971,-0.095 -16.194,-1.515 -16.395,3.639c-0.823,21.09 0.637,21.087 -0.054,263.829c-0.246,86.498 7.052,113.393 -20.415,132.504c-7.494,5.214 -15.685,4.653 -15.836,8.975c-0.265,7.596 4.313,28.391 -17.686,48.327c-14.786,13.401 -31.499,11.229 -60.635,11.239c-44.243,0.015 -50.582,-38.979 -49.862,-50.776c0.336,-5.505 2.954,-8.186 -2.582,-8.347c-8.037,-0.234 -180.807,-0.158 -181.574,0.087c-3.744,1.199 -2.117,2.478 -2.552,6.468Zm-37.222,6.986c-0.244,-11.962 0.392,-12.273 -0.981,-13.241c-0.751,-0.53 -5.951,-0.537 -6.471,-0.538c-45.634,-0.064 -47.904,-0.74 -48.043,3.335c-0.579,17.049 3.139,19.54 20.128,20.104c33.313,1.105 35.011,-2.227 35.366,-9.66Zm104.354,-203.353c-168.459,0.143 -171.032,2.028 -194.508,-15.871c-6.059,-4.62 -3.361,3.624 -2.773,95.207c0.199,31.031 -0.053,34.178 -0.005,45.418c0.121,28.398 7.211,29.131 29.585,29.122c323.04,-0.126 323.019,0.139 351.107,-0.024c46.98,-0.273 54.562,3.019 60.692,-10.117c3.636,-7.79 2.102,-92.614 3.514,-156.993c0.225,-10.26 -5.126,-2.428 -14.022,2.634c-21.143,12.031 -22.51,10.667 -233.589,10.622Zm5.232,-342.836c-142.523,0.17 -151.827,-3.355 -175.922,17.518c-17.54,15.195 -27.366,36.546 -23.215,37.802c1.816,0.55 382.488,0.164 415.748,0.13c6.402,-0.006 23.511,1.528 21.862,-3.333c-16.28,-47.966 -63.799,-51.443 -70.806,-51.956c-2.479,-0.181 -60.063,-0.164 -167.666,-0.161Zm183.436,305.822c53.707,-3.909 58.961,-31.54 58.912,-56.584c-0.305,-154.112 1.324,-155.039 -1.341,-157.119c-1.128,-0.88 -1.372,-0.465 -377.262,-0.415c-63.062,0.008 -67.108,-1.821 -67.337,3.825c-0.346,8.535 0.286,149.446 0.344,162.441c0.254,56.64 75.307,47.94 77.477,47.97c24.734,0.349 165.145,2.327 309.207,-0.119Zm6.971,226.474c-37.817,0.132 -40.025,-0.659 -40.202,3.42c-0.182,4.213 -3.098,18.594 6.987,19.452c42.884,3.652 45.454,-3.798 46.687,-7.372c0.61,-1.767 1.288,-11.678 0.483,-13.816c-1.296,-3.441 -2.536,-1.543 -13.955,-1.684Z" style="fill:#555b5e;"/><path d="M1147.529,994.588c12.276,2.457 121.992,18.354 113.466,153.012c-6.924,109.369 -145.028,161.833 -226.404,86.78c-84.929,-78.33 -42.485,-255.445 112.938,-239.793Zm-101.904,137.294c4.928,129.962 175.737,107.091 162.948,-12.203c-10.735,-100.139 -157.923,-108.77 -162.948,12.203Z" style="fill:#555b5e;"/><path d="M1003.116,695.168c0.072,-0.949 -0.728,-4.444 3.025,-4.793c3.965,-0.37 98.008,-0.124 106.53,-0.102c93.733,0.245 98.485,90.358 55.472,123.201c-4.125,3.15 -1.046,4.013 3.557,6.414c50.467,26.322 50.172,121.283 -32.779,132.454c-19.085,2.57 -134.123,1.187 -134.381,1.051c-1.627,-0.86 -1.427,-1.55 -1.425,-258.224Zm53.908,83.856c-0.01,5.193 -1.639,18.982 3.249,19.115c61.488,1.666 66.71,-2.162 71.326,-5.546c17.3,-12.68 19.773,-54.932 -22.399,-55.989c-4.058,-0.102 -46.746,-1.172 -50.736,0.398c-1.915,0.754 -1.45,3.235 -1.44,42.022Zm71.507,128.192c1.642,-0.453 3.337,-0.697 4.979,-1.149c26.933,-7.422 33.349,-52.75 -1.871,-63.31c-10.537,-3.159 -72.635,-1.366 -73.264,-1.087c-1.36,0.603 -1.35,9.856 -1.349,10.72c0.058,52.44 -0.223,53.717 0.652,54.76c1.737,2.073 54.91,2.157 70.853,0.067Z" style="fill:#555b5e;"/><path d="M1399.23,994.597c16.09,-1.208 15.983,-1.273 17.377,-1.305c97.659,-2.263 129.329,89.061 120.482,91.204c-0.93,0.225 -45.19,0.12 -47.089,0.022c-4.815,-0.249 -11.068,-17.271 -24.99,-27.008c-61.01,-42.668 -137.719,12.167 -127.153,86.626c15.227,107.313 141.672,87.484 152.744,22.763c0.928,-5.427 -3.354,-2.1 -68.739,-3.382c-5.176,-0.101 -3.732,-8.744 -3.781,-28.137c-0.026,-10.205 -2.936,-14.703 7.281,-14.788c15.109,-0.126 113.017,-0.032 113.617,0.053c4.322,0.613 3.514,6.336 3.227,26.963c-1.14,81.984 -65.488,116.196 -104.63,120.43c-185.055,20.015 -211.461,-244.175 -38.345,-273.442Z" style="fill:#555b5e;"/><path d="M1317.026,960.162c-4.406,-0.054 -28.162,2.918 -50.527,-13.584c-35.77,-26.392 -29.867,-66.411 -29.992,-137.858c-0.084,-47.68 -0.991,-50.221 3.698,-50.316c45.267,-0.918 47.009,-0.677 47.577,3.095c2.631,17.459 -6.465,109.858 6.878,134.39c15.86,29.159 71.608,26.416 72.734,-29.527c0.721,-35.82 -1.655,-104.993 1.508,-107.41c0.881,-0.673 48.56,-1.767 49.705,0.702c0.452,0.974 0.473,0.961 0.453,171.35c-0.001,9.517 1.066,22.546 -2.438,22.695c-3.607,0.154 -41.858,1.785 -45.121,-0.396c-3.573,-2.388 3.118,-31.597 -5.774,-18.996c-15.491,21.95 -44.32,25.341 -48.701,25.856Z" style="fill:#555b5e;"/><path d="M1446.932,904.723c-0.615,-8.546 -1.223,-8.714 -0.176,-10.128c2.484,-3.355 38.164,-3.59 41.497,-3.612c7.769,-0.051 3.147,21.659 26.148,27.947c39.848,10.893 66.518,-26.437 33.068,-36.309c-18.409,-5.433 -111.41,-5.989 -96.489,-82.768c12.677,-65.232 153.31,-62.852 152.755,15.871c-0.031,4.463 -8.149,2.641 -8.987,2.572c-29.049,-2.386 -33.854,0.064 -37.028,-7.666c-11.449,-27.888 -55.66,-20.98 -61.019,-3.757c-7.307,23.482 34.964,24.172 59.491,30.448c47.781,12.226 60.722,48.756 48.564,81.236c-20.118,53.747 -146.188,58.542 -157.824,-13.834Z" style="fill:#555b5e;"/><path d="M782.43,1086.909c73.366,21.261 27.854,121.858 -34.561,89.857c-39.071,-20.032 -35.207,-97.839 34.561,-89.857Zm-17.487,36.093c-19.288,18.114 17.822,33.074 18.971,10.616c0.275,-5.374 -3.078,-9.472 -4.835,-10.544c-7.571,-4.619 -13.717,-0.258 -14.135,-0.072Z" style="fill:#555b5e;"/><path d="M523.206,1135.375c-7.309,75.476 -111.752,52.175 -95.241,-13.952c11.55,-46.259 90.732,-53.132 95.241,13.952Zm-36.454,-3.368c-6.099,-15.286 -20.248,-8.435 -23.17,-1.565c-7.823,18.397 25.249,30.542 23.17,1.565Z" style="fill:#555b5e;"/></g></svg>